<mxfile host="app.diagrams.net" modified="2024-07-05T07:33:27.378Z" agent="Mozilla/5.0 (Macintosh; Intel Mac OS X 10_15_7) AppleWebKit/537.36 (KHTML, like Gecko) Chrome/126.0.0.0 Safari/537.36" version="23.0.0" etag="Z_-95W5Hbv7lTp9cyjVk" type="github">
  <diagram name="第 1 页" id="BuCrCjxRLYBdloh2XWjL">
    <mxGraphModel>
      <root>
        <mxCell id="0" />
        <mxCell id="1" parent="0" />
      </root>
    </mxGraphModel>
  </diagram>
</mxfile>
